# xmcd CD database file
#
# Track frame offsets:
#	150
#	12055
#	23345
#	108915
#	122182
#	141682
#	169810
#	185710
#	200497
#	212805
#	227615
#	239895
#	253012
#
# Disc length: 3667 seconds
#
# Revision: 1
# Processed by: cddbd v1.5.1PL0 Copyright (c) Steve Scherf et al.
# Submitted via: CDex 1.51
#
DISCID=bc0e510d
DTITLE=Various Artist - ET And All That Jazz
DYEAR=1900
DGENRE=Jazz
TTITLE0=Ella Fitzgerald - A Tisket A Tasket
TTITLE1=Charlie Parker - The Gypsy
TTITLE2=John Coltrane - Mr. RCM JNR - My Favourite Things
TTITLE3=Louis Armstrong - Aint Misbehaving
TTITLE4=Dizzy Gillespie - Siboney
TTITLE5=Miles Davis - Round Midnight
TTITLE6=Glen Miller Orchestra - In The Mood
TTITLE7=Thelonius Monk - Just A Gigolo
TTITLE8=Louis Jordan and His Tympany Five - Is You Or IS You Aint My Babay
TTITLE9=Charlie Parker - Be Bop
TTITLE10=Louis Armstrong - When Te Saints Go Marching In
TTITLE11=Duke Ellington - Take The A Train
TTITLE12=Dizzy Gillespie - Exactly Like You
EXTD=
EXTT0=
EXTT1=
EXTT2=
EXTT3=
EXTT4=
EXTT5=
EXTT6=
EXTT7=
EXTT8=
EXTT9=
EXTT10=
EXTT11=
EXTT12=
PLAYORDER=
